<?xml version="1.0" standalone="no"?>
<!DOCTYPE svg PUBLIC "-//W3C//DTD SVG 20010904//EN"
 "http://www.w3.org/TR/2001/REC-SVG-20010904/DTD/svg10.dtd">
<svg version="1.0" xmlns="http://www.w3.org/2000/svg"
 width="512.000000pt" height="512.000000pt" viewBox="0 0 512.000000 512.000000"
 preserveAspectRatio="xMidYMid meet">
<metadata>
Created by potrace 1.14, written by Peter Selinger 2001-2017
</metadata>
<g transform="translate(0.000000,512.000000) scale(0.100000,-0.100000)"
fill="#000000" stroke="none">
<path d="M835 4869 c-68 -11 -170 -46 -231 -81 -56 -31 -156 -115 -188 -157
-11 -14 -23 -28 -27 -31 -22 -17 -93 -171 -116 -252 -11 -37 -13 -998 -3
-1051 41 -209 198 -405 395 -492 120 -53 153 -56 650 -56 253 0 478 3 500 6
135 22 275 94 373 194 80 81 133 167 169 276 l27 80 2 480 c2 548 1 562 -73
714 -62 129 -169 239 -293 299 -153 75 -148 75 -670 76 -256 1 -487 -1 -515
-5z"/>
<path d="M3348 4875 c-2 -2 -24 -6 -49 -9 -266 -35 -510 -277 -557 -551 -4
-22 -7 -258 -7 -525 l1 -485 26 -78 c85 -253 303 -440 550 -472 64 -9 905 -9
967 -1 229 31 451 206 534 421 43 111 46 158 47 637 0 502 -3 540 -60 665 -87
191 -249 324 -470 384 -32 9 -177 13 -512 14 -257 1 -469 1 -470 0z"/>
<path d="M927 2364 c-1 -1 -31 -4 -68 -8 -281 -26 -529 -254 -587 -539 -4 -18
-7 -259 -7 -537 l0 -505 27 -73 c86 -236 269 -400 504 -452 77 -16 128 -18
542 -16 251 2 471 6 487 9 272 53 487 260 545 524 18 81 19 126 17 563 l-3
475 -27 80 c-84 253 -289 428 -552 471 -32 5 -872 13 -878 8z"/>
<path d="M3397 2364 c-1 -1 -29 -4 -62 -7 -290 -29 -526 -247 -590 -546 -11
-52 -13 -164 -11 -536 1 -259 6 -481 10 -495 11 -37 12 -42 21 -75 4 -16 26
-66 49 -110 87 -171 271 -308 468 -351 18 -4 241 -8 495 -9 486 -3 529 0 649
44 166 62 329 223 387 381 45 126 47 142 47 641 0 447 -2 480 -21 549 -63 227
-217 396 -434 475 -38 14 -70 25 -70 24 0 -1 -27 2 -60 6 -47 6 -871 14 -878
9z"/>
</g>
</svg>
